<svg width="120" height="38" viewBox="0 0 120 38" fill="none" xmlns="http://www.w3.org/2000/svg">
<g clip-path="url(#clip0_649_4068)">
<path d="M0.824371 0H0.31543V19.8473H0.824371V0Z" fill="#191919"/>
<path d="M3.70926 0H3.20032V11.1959H3.70926V0Z" fill="#251002"/>
<path d="M6.59415 0H6.08521V11.1959H6.59415V0Z" fill="#251002"/>
<path d="M9.47964 0H8.9707V11.1959H9.47964V0Z" fill="#251002"/>
<path d="M12.3647 0H11.8557V11.1959H12.3647V0Z" fill="#251002"/>
<path d="M15.2495 0H14.7406V15.2672H15.2495V0Z" fill="#251002"/>
<path d="M18.135 0H17.6261V11.1959H18.135V0Z" fill="#251002"/>
<path d="M21.02 0H20.5111V11.1959H21.02V0Z" fill="#251002"/>
<path d="M23.9054 0H23.3965V11.1959H23.9054V0Z" fill="#251002"/>
<path d="M26.7904 0H26.2815V11.1959H26.7904V0Z" fill="#251002"/>
<path d="M29.6753 0H29.1664V19.8473H29.6753V0Z" fill="#251002"/>
<path d="M32.5607 0H32.0518V11.1959H32.5607V0Z" fill="#251002"/>
<path d="M35.4457 0H34.9368V11.1959H35.4457V0Z" fill="#251002"/>
<path d="M38.3307 0H37.8218V11.1959H38.3307V0Z" fill="#251002"/>
<path d="M41.2162 0H40.7073V11.1959H41.2162V0Z" fill="#251002"/>
<path d="M44.1011 0H43.5922V15.2672H44.1011V0Z" fill="#251002"/>
<path d="M46.9861 0H46.4772V11.1959H46.9861V0Z" fill="#251002"/>
<path d="M49.8716 0H49.3627V11.1959H49.8716V0Z" fill="#251002"/>
<path d="M52.7564 0H52.2476V11.1959H52.7564V0Z" fill="#251002"/>
<path d="M55.6414 0H55.1326V11.1959H55.6414V0Z" fill="#251002"/>
<path d="M58.5269 0H58.0181V19.8473H58.5269V0Z" fill="#251002"/>
<path d="M61.4118 0H60.903V11.1959H61.4118V0Z" fill="#251002"/>
<path d="M64.2968 0H63.788V11.1959H64.2968V0Z" fill="#251002"/>
<path d="M67.1823 0H66.6735V11.1959H67.1823V0Z" fill="#251002"/>
<path d="M70.0673 0H69.5583V11.1959H70.0673V0Z" fill="#251002"/>
<path d="M72.9528 0H72.4438V15.2672H72.9528V0Z" fill="#251002"/>
<path d="M75.8377 0H75.3289V11.1959H75.8377V0Z" fill="#251002"/>
<path d="M78.7226 0H78.2137V11.1959H78.7226V0Z" fill="#251002"/>
<path d="M81.6081 0H81.0991V11.1959H81.6081V0Z" fill="#251002"/>
<path d="M84.4931 0H83.9841V11.1959H84.4931V0Z" fill="#251002"/>
<path d="M87.3781 0H86.8691V19.8473H87.3781V0Z" fill="#251002"/>
<path d="M90.2635 0H89.7545V11.1959H90.2635V0Z" fill="#251002"/>
<path d="M93.1485 0H92.6395V11.1959H93.1485V0Z" fill="#251002"/>
<path d="M96.0335 0H95.5245V11.1959H96.0335V0Z" fill="#251002"/>
<path d="M98.9189 0H98.4099V11.1959H98.9189V0Z" fill="#251002"/>
<path d="M101.804 0H101.295V15.2672H101.804V0Z" fill="#251002"/>
<path d="M104.689 0H104.18V11.1959H104.689V0Z" fill="#251002"/>
<path d="M107.574 0H107.065V11.1959H107.574V0Z" fill="#251002"/>
<path d="M110.459 0H109.95V11.1959H110.459V0Z" fill="#251002"/>
<path d="M113.344 0H112.835V11.1959H113.344V0Z" fill="#251002"/>
<path d="M116.23 0H115.721V19.8473H116.23V0Z" fill="#191919"/>
<path d="M6.40021 36.6665V37.6981H0V28.3433H1.13448V36.6665H6.40021Z" fill="#251002"/>
<path d="M29.9883 28.3428H28.8535V37.6978H29.9883V28.3428Z" fill="#251002"/>
<path d="M62.2042 28.3557V37.6981H61.2483L55.473 30.4672V37.6981H54.3385V28.3433H55.2089L61.0685 35.7143V28.3557H62.2042Z" fill="#251002"/>
<path d="M90.3059 36.6665V37.6981H83.9441V28.3433H90.1905V29.3773H85.0786V32.4286H89.5334V33.423H85.0786V36.6665H90.3059Z" fill="#251002"/>
<path d="M119.566 35.1137C119.576 35.5116 119.487 35.9057 119.308 36.2611C119.138 36.5852 118.892 36.8634 118.591 37.0721C118.265 37.2973 117.899 37.4583 117.513 37.5468C117.07 37.6508 116.616 37.7015 116.161 37.6977C114.792 37.7229 113.461 37.2416 112.424 36.346L112.348 36.2831L112.93 35.3338L113.037 35.4438C113.207 35.6206 113.396 35.7787 113.599 35.9153C113.831 36.0723 114.079 36.204 114.338 36.3083C114.619 36.4243 114.911 36.5128 115.209 36.5724C115.531 36.6365 115.858 36.6681 116.187 36.6666C116.757 36.6988 117.325 36.5692 117.824 36.2925C118.007 36.1784 118.155 36.017 118.253 35.8255C118.351 35.634 118.395 35.4195 118.381 35.2049C118.388 34.9767 118.334 34.7508 118.224 34.551C118.103 34.3612 117.938 34.2037 117.743 34.0921C117.481 33.9389 117.201 33.8196 116.91 33.7369C116.573 33.6363 116.174 33.5326 115.724 33.432C115.24 33.3188 114.813 33.2025 114.454 33.0798C114.118 32.9742 113.8 32.8173 113.511 32.6146C113.257 32.4379 113.052 32.2001 112.914 31.923C112.774 31.6146 112.706 31.2779 112.716 30.9391C112.71 30.5347 112.795 30.134 112.964 29.7666C113.128 29.4244 113.372 29.1268 113.675 28.899C113.997 28.6651 114.358 28.4895 114.741 28.3804C115.177 28.2566 115.629 28.1963 116.083 28.2012C116.652 28.1929 117.218 28.2899 117.752 28.4872C118.236 28.6747 118.684 28.9449 119.075 29.2857L119.151 29.3486L118.582 30.2916L118.475 30.1722C118.203 29.8752 117.866 29.6441 117.491 29.4963C117.04 29.3158 116.556 29.2271 116.07 29.2354C115.477 29.186 114.884 29.3365 114.385 29.6629C114.217 29.8017 114.083 29.9781 113.994 30.1778C113.906 30.3776 113.865 30.5952 113.876 30.8134C113.868 31.0269 113.915 31.239 114.011 31.4295C114.112 31.6001 114.255 31.7419 114.426 31.8414C114.664 31.9829 114.92 32.0908 115.187 32.162C115.504 32.2562 115.885 32.3506 116.315 32.4449C116.764 32.5362 117.207 32.6527 117.642 32.7938C118.007 32.9089 118.353 33.0761 118.67 33.2905C118.947 33.4818 119.176 33.736 119.336 34.0324C119.5 34.3687 119.579 34.74 119.566 35.1137Z" fill="#251002"/>
</g>
<defs>
<clipPath id="clip0_649_4068">
<rect width="119.566" height="37.6979" fill="white"/>
</clipPath>
</defs>
</svg>
