<svg width="382" height="156" viewBox="0 0 382 156" fill="none" xmlns="http://www.w3.org/2000/svg">
<g clip-path="url(#clip0_1313_5282)">
<path d="M375.868 156.068H377.975V92.8627H375.868V156.068Z" fill="#191919"/>
<path d="M363.921 156.068H366.028V109.718H363.921V156.068Z" fill="#191919"/>
<path d="M351.978 156.068H354.085V109.718H351.978V156.068Z" fill="#191919"/>
<path d="M340.033 156.068H342.14V109.718H340.033V156.068Z" fill="#191919"/>
<path d="M328.088 156.068H330.195V109.718H328.088V156.068Z" fill="#191919"/>
<path d="M316.145 156.068H318.252V73.9012H316.145V156.068Z" fill="#191919"/>
<path d="M304.2 156.068H306.307V109.718H304.2V156.068Z" fill="#191919"/>
<path d="M292.255 156.068H294.362V109.718H292.255V156.068Z" fill="#191919"/>
<path d="M280.312 156.068H282.419V109.718H280.312V156.068Z" fill="#191919"/>
<path d="M268.366 156.068H270.473V109.718H268.366V156.068Z" fill="#191919"/>
<path d="M256.422 156.068H258.529V92.8627H256.422V156.068Z" fill="#191919"/>
<path d="M244.479 156.068H246.586V109.718H244.479V156.068Z" fill="#191919"/>
<path d="M232.533 156.068H234.64V109.718H232.533V156.068Z" fill="#191919"/>
<path d="M220.59 156.068H222.696V109.718H220.59V156.068Z" fill="#191919"/>
<path d="M208.645 156.068H210.752V109.718H208.645V156.068Z" fill="#191919"/>
<path d="M196.7 156.068H198.807V73.9012H196.7V156.068Z" fill="#191919"/>
<path d="M184.757 156.068H186.863V109.718H184.757V156.068Z" fill="#191919"/>
<path d="M172.812 156.068H174.919V109.718H172.812V156.068Z" fill="#191919"/>
<path d="M160.867 156.068H162.974V109.718H160.867V156.068Z" fill="#191919"/>
<path d="M148.923 156.068H151.03V109.718H148.923V156.068Z" fill="#191919"/>
<path d="M136.977 156.068H139.084V92.8627H136.977V156.068Z" fill="#191919"/>
<path d="M125.033 156.068H127.14V109.718H125.033V156.068Z" fill="#191919"/>
<path d="M113.09 156.068H115.196V109.718H113.09V156.068Z" fill="#191919"/>
<path d="M101.144 156.068H103.251V109.718H101.144V156.068Z" fill="#191919"/>
<path d="M89.2006 156.068H91.3076V109.718H89.2006V156.068Z" fill="#191919"/>
<path d="M77.2563 156.068H79.3633L79.3633 73.9012H77.2563L77.2563 156.068Z" fill="#191919"/>
<path d="M65.3109 156.068H67.418V109.718H65.3109V156.068Z" fill="#191919"/>
<path d="M53.3676 156.068H55.4746L55.4746 109.718H53.3676L53.3676 156.068Z" fill="#191919"/>
<path d="M41.4243 156.068H43.5312L43.5313 109.718H41.4243L41.4243 156.068Z" fill="#191919"/>
<path d="M29.4779 156.068H31.585L31.585 109.718H29.4779L29.4779 156.068Z" fill="#191919"/>
<path d="M17.5346 156.068H19.6416L19.6416 92.8627H17.5346L17.5346 156.068Z" fill="#191919"/>
<path d="M5.59024 156.068H7.69727L7.69727 109.718H5.59024L5.59024 156.068Z" fill="#191919"/>
</g>
<defs>
<clipPath id="clip0_1313_5282">
<rect width="495" height="156.068" fill="white" transform="matrix(-1 0 0 -1 439 156.068)"/>
</clipPath>
</defs>
</svg>
